G04 #@! TF.FileFunction,Copper,L2,Bot*
%FSLAX46Y46*%
G04 Gerber Fmt 4.6, Leading zero omitted, Abs format (unit mm)*
G04 Created by KiCad (PCBNEW 4.0.7) date 05/24/18 16:56:10*
%MOMM*%
%LPD*%
G01*
G04 APERTURE LIST*
%ADD10C,0.150000*%
%ADD11O,3.000000X2.000000*%
%ADD12R,2.500000X1.700000*%
%ADD13O,3.000000X1.700000*%
%ADD14C,1.000000*%
%ADD15O,1.000000X1.000000*%
%ADD16R,2.500000X2.000000*%
%ADD17O,2.000000X2.500000*%
%ADD18R,2.000000X2.500000*%
%ADD19O,2.500000X2.000000*%
%ADD20C,2.800000*%
%ADD21C,1.750000*%
%ADD22R,1.700000X1.700000*%
%ADD23O,1.700000X2.500000*%
%ADD24C,3.000000*%
%ADD25C,0.750000*%
G04 APERTURE END LIST*
D10*
D11*
X16510000Y-81915000D03*
X16510000Y-76835000D03*
X16510000Y-74295000D03*
X16510000Y-71755000D03*
X16510000Y-69215000D03*
X16510000Y-66675000D03*
X16510000Y-64135000D03*
X16510000Y-61595000D03*
X-3810000Y-46355000D03*
X-3810000Y-48895000D03*
X-3810000Y-51435000D03*
X-3810000Y-53975000D03*
X-3810000Y-56515000D03*
X-3810000Y-64135000D03*
X-3810000Y-66675000D03*
D12*
X-3810000Y-24765000D03*
D13*
X-3810000Y-22225000D03*
D14*
X-3810000Y-19685000D03*
D13*
X-3810000Y-17145000D03*
D15*
X-3810000Y-14605000D03*
X-3810000Y-12065000D03*
D13*
X-3810000Y-9525000D03*
X-3810000Y-6985000D03*
D16*
X33655000Y-81915000D03*
D17*
X26035000Y-81915000D03*
D16*
X33655000Y-62865000D03*
D17*
X26035000Y-62865000D03*
D16*
X33655000Y-43815000D03*
D17*
X26035000Y-43815000D03*
D16*
X33655000Y-24765000D03*
D17*
X26035000Y-24765000D03*
D16*
X52705000Y-81915000D03*
D17*
X45085000Y-81915000D03*
D16*
X52070000Y-62865000D03*
D17*
X44450000Y-62865000D03*
D16*
X52705000Y-43815000D03*
D17*
X45085000Y-43815000D03*
D16*
X52705000Y-24765000D03*
D17*
X45085000Y-24765000D03*
D16*
X71755000Y-81915000D03*
D17*
X64135000Y-81915000D03*
D16*
X71755000Y-62865000D03*
D17*
X64135000Y-62865000D03*
D16*
X71755000Y-43815000D03*
D17*
X64135000Y-43815000D03*
D16*
X90170000Y-24765000D03*
D17*
X82550000Y-24765000D03*
D16*
X90805000Y-81915000D03*
D17*
X83185000Y-81915000D03*
D16*
X90805000Y-62865000D03*
D17*
X83185000Y-62865000D03*
D16*
X90805000Y-43815000D03*
D17*
X83185000Y-43815000D03*
D16*
X109855000Y-81915000D03*
D17*
X102235000Y-81915000D03*
D16*
X109855000Y-62865000D03*
D17*
X102235000Y-62865000D03*
D16*
X109855000Y-43815000D03*
D17*
X102235000Y-43815000D03*
D16*
X128905000Y-24765000D03*
D17*
X121285000Y-24765000D03*
D16*
X131445000Y-81915000D03*
D17*
X123825000Y-81915000D03*
D18*
X123825000Y-57150000D03*
D19*
X123825000Y-64770000D03*
D20*
X33616500Y-70044500D03*
X36156500Y-76394500D03*
X33616500Y-50994500D03*
X36156500Y-57344500D03*
X33616500Y-31944500D03*
X36156500Y-38294500D03*
X33616500Y-12894500D03*
X36156500Y-19244500D03*
X52666500Y-70044500D03*
X55206500Y-76394500D03*
X52666500Y-50994500D03*
X55206500Y-57344500D03*
X52666500Y-31944500D03*
X55206500Y-38294500D03*
X52666500Y-12894500D03*
X55206500Y-19244500D03*
X71716500Y-70044500D03*
X74256500Y-76394500D03*
X71716500Y-50994500D03*
X74256500Y-57344500D03*
X71716500Y-31944500D03*
X74256500Y-38294500D03*
X83781500Y-20514500D03*
X90131500Y-17974500D03*
X90766500Y-70044500D03*
X93306500Y-76394500D03*
X90766500Y-50994500D03*
X93306500Y-57344500D03*
X90766500Y-31944500D03*
X93306500Y-38294500D03*
X109816500Y-70044500D03*
X112356500Y-76394500D03*
X109816500Y-50994500D03*
X112356500Y-57344500D03*
X109816500Y-31944500D03*
X112356500Y-38294500D03*
X121881500Y-20514500D03*
X128231500Y-17974500D03*
X128866500Y-60519500D03*
X131406500Y-66869500D03*
X128866500Y-31944500D03*
X131406500Y-38294500D03*
D21*
X-3810000Y-34925000D03*
X3810000Y-34925000D03*
X6985000Y-31115000D03*
X-635000Y-31115000D03*
D22*
X17145000Y3175000D03*
D23*
X14605000Y3175000D03*
X12065000Y3175000D03*
D24*
X29210000Y-17780000D03*
X29210000Y-31750000D03*
X29210000Y-38735000D03*
X29210000Y-49530000D03*
X29210000Y-57785000D03*
X29210000Y-69850000D03*
X48260000Y-56515000D03*
X48260000Y-69850000D03*
X48260000Y-50165000D03*
X48260000Y-37465000D03*
X48260000Y-31115000D03*
X47625000Y-19050000D03*
D20*
X67310000Y-19050000D03*
X67310000Y-31750000D03*
X4445000Y-42545000D03*
X17145000Y-42545000D03*
D24*
X67310000Y-57785000D03*
X67310000Y-70485000D03*
X67310000Y-50800000D03*
X67310000Y-38100000D03*
D20*
X7620000Y-38100000D03*
X17145000Y-38100000D03*
D24*
X86360000Y-24765000D03*
X86360000Y-31750000D03*
X86360000Y-57785000D03*
X86360000Y-69850000D03*
X86360000Y-50800000D03*
X86360000Y-38100000D03*
X104775000Y-57150000D03*
X105410000Y-69850000D03*
X105410000Y-50800000D03*
X105410000Y-38735000D03*
D25*
X14605000Y3175000D02*
X14605000Y-635000D01*
X11430000Y-75565000D02*
X12700000Y-76835000D01*
X12700000Y-76835000D02*
X15875000Y-76835000D01*
X15875000Y-76835000D02*
X16510000Y-76835000D01*
X10795000Y-56515000D02*
X14605000Y-52705000D01*
X10795000Y-74930000D02*
X10795000Y-56515000D01*
X11430000Y-75565000D02*
X10795000Y-74930000D01*
X14605000Y0D02*
X14605000Y-635000D01*
X14605000Y-635000D02*
X14605000Y-18415000D01*
X16510000Y-76835000D02*
X12700000Y-76835000D01*
X14605000Y-52705000D02*
X14605000Y-18415000D01*
X26035000Y-81915000D02*
X26035000Y-74295000D01*
X26035000Y-74295000D02*
X16510000Y-74295000D01*
X102235000Y-81915000D02*
X102235000Y-85090000D01*
X83185000Y-81915000D02*
X83185000Y-85090000D01*
X64135000Y-81915000D02*
X64135000Y-85090000D01*
X45085000Y-81915000D02*
X45085000Y-85090000D01*
X123825000Y-81915000D02*
X123825000Y-85090000D01*
X26035000Y-85090000D02*
X26035000Y-81915000D01*
X123825000Y-85090000D02*
X102235000Y-85090000D01*
X102235000Y-85090000D02*
X83185000Y-85090000D01*
X83185000Y-85090000D02*
X64135000Y-85090000D01*
X64135000Y-85090000D02*
X45085000Y-85090000D01*
X45085000Y-85090000D02*
X26035000Y-85090000D01*
X26035000Y-62865000D02*
X26035000Y-69215000D01*
X26035000Y-69215000D02*
X16510000Y-69215000D01*
X102235000Y-62865000D02*
X104775000Y-62865000D01*
X122555000Y-63500000D02*
X123825000Y-64770000D01*
X113665000Y-63500000D02*
X122555000Y-63500000D01*
X111760000Y-65405000D02*
X113665000Y-63500000D01*
X107315000Y-65405000D02*
X111760000Y-65405000D01*
X104775000Y-62865000D02*
X107315000Y-65405000D01*
X83185000Y-62865000D02*
X86360000Y-62865000D01*
X95250000Y-62865000D02*
X102235000Y-62865000D01*
X92075000Y-66040000D02*
X95250000Y-62865000D01*
X89535000Y-66040000D02*
X92075000Y-66040000D01*
X86360000Y-62865000D02*
X89535000Y-66040000D01*
X64135000Y-62865000D02*
X67310000Y-62865000D01*
X76835000Y-62865000D02*
X83185000Y-62865000D01*
X74295000Y-65405000D02*
X76835000Y-62865000D01*
X69850000Y-65405000D02*
X74295000Y-65405000D01*
X67310000Y-62865000D02*
X69850000Y-65405000D01*
X44450000Y-62865000D02*
X47625000Y-62865000D01*
X56515000Y-62865000D02*
X64135000Y-62865000D01*
X53975000Y-65405000D02*
X56515000Y-62865000D01*
X50165000Y-65405000D02*
X53975000Y-65405000D01*
X47625000Y-62865000D02*
X50165000Y-65405000D01*
X26035000Y-62865000D02*
X29210000Y-62865000D01*
X38100000Y-62865000D02*
X44450000Y-62865000D01*
X35560000Y-65405000D02*
X38100000Y-62865000D01*
X31750000Y-65405000D02*
X35560000Y-65405000D01*
X29210000Y-62865000D02*
X31750000Y-65405000D01*
X23495000Y-60960000D02*
X23495000Y-66675000D01*
X26035000Y-60325000D02*
X24130000Y-60325000D01*
X24130000Y-60325000D02*
X23495000Y-60960000D01*
X26035000Y-43815000D02*
X26035000Y-60325000D01*
X23495000Y-66675000D02*
X17145000Y-66675000D01*
X17145000Y-66675000D02*
X16510000Y-66675000D01*
X83185000Y-43815000D02*
X85725000Y-43815000D01*
X95250000Y-43815000D02*
X102235000Y-43815000D01*
X92075000Y-46990000D02*
X95250000Y-43815000D01*
X88900000Y-46990000D02*
X92075000Y-46990000D01*
X85725000Y-43815000D02*
X88900000Y-46990000D01*
X64135000Y-43815000D02*
X66675000Y-43815000D01*
X77470000Y-43815000D02*
X83185000Y-43815000D01*
X74930000Y-46355000D02*
X77470000Y-43815000D01*
X69215000Y-46355000D02*
X74930000Y-46355000D01*
X66675000Y-43815000D02*
X69215000Y-46355000D01*
X45085000Y-43815000D02*
X48260000Y-43815000D01*
X57785000Y-43815000D02*
X64135000Y-43815000D01*
X55245000Y-46355000D02*
X57785000Y-43815000D01*
X50800000Y-46355000D02*
X55245000Y-46355000D01*
X48260000Y-43815000D02*
X50800000Y-46355000D01*
X26035000Y-43815000D02*
X28575000Y-43815000D01*
X38735000Y-43815000D02*
X45085000Y-43815000D01*
X36195000Y-46355000D02*
X38735000Y-43815000D01*
X31115000Y-46355000D02*
X36195000Y-46355000D01*
X28575000Y-43815000D02*
X31115000Y-46355000D01*
X23495000Y-40005000D02*
X23495000Y-57785000D01*
X23495000Y-40005000D02*
X25400000Y-38100000D01*
X25400000Y-38100000D02*
X26035000Y-38100000D01*
X26035000Y-24765000D02*
X26035000Y-38100000D01*
X20320000Y-64135000D02*
X16510000Y-64135000D01*
X20955000Y-63500000D02*
X20320000Y-64135000D01*
X20955000Y-60325000D02*
X20955000Y-63500000D01*
X23495000Y-57785000D02*
X20955000Y-60325000D01*
X120650000Y-25400000D02*
X94615000Y-25400000D01*
X94615000Y-25400000D02*
X92075000Y-27940000D01*
X92075000Y-27940000D02*
X85725000Y-27940000D01*
X82550000Y-24765000D02*
X85725000Y-27940000D01*
X120650000Y-25400000D02*
X121285000Y-24765000D01*
X45085000Y-24765000D02*
X48260000Y-24765000D01*
X56515000Y-25400000D02*
X81915000Y-25400000D01*
X54610000Y-27305000D02*
X56515000Y-25400000D01*
X50800000Y-27305000D02*
X54610000Y-27305000D01*
X48260000Y-24765000D02*
X50800000Y-27305000D01*
X81915000Y-25400000D02*
X82550000Y-24765000D01*
X26035000Y-24765000D02*
X28575000Y-24765000D01*
X38100000Y-24765000D02*
X45085000Y-24765000D01*
X35560000Y-27305000D02*
X38100000Y-24765000D01*
X31115000Y-27305000D02*
X35560000Y-27305000D01*
X28575000Y-24765000D02*
X31115000Y-27305000D01*
X29210000Y-69850000D02*
X29210000Y-71120000D01*
X28575000Y-71755000D02*
X16510000Y-71755000D01*
X29210000Y-71120000D02*
X28575000Y-71755000D01*
X33616500Y-31944500D02*
X29404500Y-31944500D01*
X29210000Y-17780000D02*
X33655000Y-13335000D01*
X29404500Y-31944500D02*
X29210000Y-31750000D01*
X33655000Y-13335000D02*
X33655000Y-12700000D01*
X33655000Y-12700000D02*
X33616500Y-12894500D01*
X33616500Y-50994500D02*
X30674500Y-50994500D01*
X33655000Y-34290000D02*
X33655000Y-32385000D01*
X29210000Y-38735000D02*
X33655000Y-34290000D01*
X30674500Y-50994500D02*
X29210000Y-49530000D01*
X33655000Y-32385000D02*
X33616500Y-31944500D01*
X29210000Y-57785000D02*
X29210000Y-55245000D01*
X29210000Y-55245000D02*
X33655000Y-50800000D01*
X33655000Y-50800000D02*
X33616500Y-50994500D01*
X33616500Y-70044500D02*
X29404500Y-70044500D01*
X29404500Y-70044500D02*
X29210000Y-69850000D01*
X33655000Y-50800000D02*
X33616500Y-50994500D01*
X21590000Y-37465000D02*
X21590000Y-56515000D01*
X21590000Y-37465000D02*
X23495000Y-35560000D01*
X23495000Y-35560000D02*
X23495000Y-22225000D01*
X23495000Y-22225000D02*
X26035000Y-19685000D01*
X26035000Y-19685000D02*
X26035000Y-11430000D01*
X26035000Y-11430000D02*
X29845000Y-7620000D01*
X29845000Y-7620000D02*
X52070000Y-7620000D01*
X52070000Y-7620000D02*
X52705000Y-8255000D01*
X52705000Y-12700000D02*
X52705000Y-8255000D01*
X21590000Y-56515000D02*
X16510000Y-61595000D01*
X52705000Y-12700000D02*
X52666500Y-12894500D01*
X52666500Y-70044500D02*
X48454500Y-70044500D01*
X48260000Y-56515000D02*
X52705000Y-52070000D01*
X48454500Y-70044500D02*
X48260000Y-69850000D01*
X52705000Y-52070000D02*
X52705000Y-50165000D01*
X52705000Y-50165000D02*
X48260000Y-50165000D01*
X48260000Y-37465000D02*
X52705000Y-33020000D01*
X52705000Y-33020000D02*
X52705000Y-31750000D01*
X52705000Y-31750000D02*
X52070000Y-31115000D01*
X52070000Y-31115000D02*
X48260000Y-31115000D01*
X47625000Y-19050000D02*
X52705000Y-13970000D01*
X52705000Y-13970000D02*
X52705000Y-12700000D01*
X20955000Y-34290000D02*
X20955000Y-34925000D01*
X4445000Y-52705000D02*
X3175000Y-53975000D01*
X-3810000Y-53975000D02*
X3175000Y-53975000D01*
X67504500Y-31944500D02*
X71716500Y-31944500D01*
X20955000Y-22225000D02*
X20955000Y-34290000D01*
X23495000Y-19685000D02*
X20955000Y-22225000D01*
X23495000Y-8255000D02*
X23495000Y-19685000D01*
X26670000Y-5080000D02*
X23495000Y-8255000D01*
X67310000Y-5080000D02*
X26670000Y-5080000D01*
X67310000Y-19050000D02*
X67310000Y-5080000D01*
X67504500Y-31944500D02*
X67310000Y-31750000D01*
X4445000Y-42545000D02*
X4445000Y-52705000D01*
X19685000Y-40005000D02*
X17145000Y-42545000D01*
X19685000Y-36195000D02*
X19685000Y-40005000D01*
X20955000Y-34925000D02*
X19685000Y-36195000D01*
X71716500Y-70044500D02*
X67750500Y-70044500D01*
X71755000Y-53340000D02*
X71755000Y-50800000D01*
X67310000Y-57785000D02*
X71755000Y-53340000D01*
X67750500Y-70044500D02*
X67310000Y-70485000D01*
X71755000Y-50800000D02*
X67310000Y-50800000D01*
X67310000Y-38100000D02*
X71755000Y-33655000D01*
X71755000Y-33655000D02*
X71755000Y-31750000D01*
X71755000Y-31750000D02*
X71716500Y-31944500D01*
X18415000Y-30480000D02*
X18415000Y-32385000D01*
X83781500Y-20514500D02*
X81474500Y-20514500D01*
X18415000Y-20955000D02*
X18415000Y-30480000D01*
X20320000Y-19050000D02*
X18415000Y-20955000D01*
X20320000Y-7620000D02*
X20320000Y-19050000D01*
X24765000Y-3175000D02*
X20320000Y-7620000D01*
X69215000Y-3175000D02*
X24765000Y-3175000D01*
X69215000Y-8255000D02*
X69215000Y-3175000D01*
X81474500Y-20514500D02*
X69215000Y-8255000D01*
X6985000Y-38735000D02*
X6985000Y-53340000D01*
X7620000Y-38100000D02*
X6985000Y-38735000D01*
X17145000Y-33655000D02*
X17145000Y-38100000D01*
X18415000Y-32385000D02*
X17145000Y-33655000D01*
X6985000Y-53340000D02*
X3810000Y-56515000D01*
X-3810000Y-56515000D02*
X3810000Y-56515000D01*
X3810000Y-56515000D02*
X6985000Y-53340000D01*
X90766500Y-31944500D02*
X86554500Y-31944500D01*
X86360000Y-20320000D02*
X83820000Y-20320000D01*
X86360000Y-24765000D02*
X86360000Y-20320000D01*
X86554500Y-31944500D02*
X86360000Y-31750000D01*
X83820000Y-20320000D02*
X83781500Y-20514500D01*
X90766500Y-31944500D02*
X90766500Y-31788500D01*
X90766500Y-31788500D02*
X90805000Y-31750000D01*
X90805000Y-31750000D02*
X90766500Y-31944500D01*
X90766500Y-70044500D02*
X86554500Y-70044500D01*
X90805000Y-53340000D02*
X90805000Y-50800000D01*
X86360000Y-57785000D02*
X90805000Y-53340000D01*
X86554500Y-70044500D02*
X86360000Y-69850000D01*
X90805000Y-50800000D02*
X86360000Y-50800000D01*
X86360000Y-38100000D02*
X90805000Y-33655000D01*
X90805000Y-33655000D02*
X90805000Y-31750000D01*
X90805000Y-31750000D02*
X90766500Y-31944500D01*
X1905000Y-66675000D02*
X5715000Y-70485000D01*
X5715000Y-85090000D02*
X11430000Y-90805000D01*
X5715000Y-70485000D02*
X5715000Y-85090000D01*
X112835500Y-70044500D02*
X112395000Y-69604000D01*
X20955000Y-87630000D02*
X17780000Y-90805000D01*
X17780000Y-90805000D02*
X11430000Y-90805000D01*
X109816500Y-70044500D02*
X112835500Y-70044500D01*
X126365000Y-87630000D02*
X20955000Y-87630000D01*
X126365000Y-79375000D02*
X126365000Y-87630000D01*
X121920000Y-74930000D02*
X126365000Y-79375000D01*
X121920000Y-67310000D02*
X121920000Y-74930000D01*
X120015000Y-65405000D02*
X121920000Y-67310000D01*
X113895002Y-65405000D02*
X120015000Y-65405000D01*
X112395000Y-66905002D02*
X113895002Y-65405000D01*
X112395000Y-69604000D02*
X112395000Y-66905002D01*
X-635000Y-64135000D02*
X-3810000Y-64135000D01*
X1905000Y-66675000D02*
X-635000Y-64135000D01*
X109816500Y-70044500D02*
X105604500Y-70044500D01*
X104775000Y-57150000D02*
X109855000Y-52070000D01*
X105604500Y-70044500D02*
X105410000Y-69850000D01*
X109855000Y-52070000D02*
X109855000Y-50800000D01*
X109855000Y-50800000D02*
X105410000Y-50800000D01*
X105410000Y-38735000D02*
X109855000Y-34290000D01*
X109855000Y-34290000D02*
X109855000Y-31750000D01*
X109855000Y-31750000D02*
X109816500Y-31944500D01*
X9525000Y-92710000D02*
X1905000Y-85090000D01*
X1905000Y-85090000D02*
X1905000Y-84455000D01*
X1905000Y-70485000D02*
X-635000Y-67945000D01*
X-635000Y-67945000D02*
X-1905000Y-66675000D01*
X-1905000Y-66675000D02*
X-3810000Y-66675000D01*
X1905000Y-84455000D02*
X1905000Y-70485000D01*
X139065000Y-26670000D02*
X139065000Y-43815000D01*
X129540000Y-90805000D02*
X136525000Y-83820000D01*
X136525000Y-73025000D02*
X137795000Y-71755000D01*
X136525000Y-83820000D02*
X136525000Y-73025000D01*
X129540000Y-90805000D02*
X20955000Y-90805000D01*
X19050000Y-92710000D02*
X9525000Y-92710000D01*
X20955000Y-90805000D02*
X19050000Y-92710000D01*
X134620000Y-51435000D02*
X134620000Y-52705000D01*
X134620000Y-52705000D02*
X137795000Y-55880000D01*
X137795000Y-55880000D02*
X137795000Y-71755000D01*
X128866500Y-31944500D02*
X127194500Y-31944500D01*
X124460000Y-22860000D02*
X121920000Y-20320000D01*
X124460000Y-29210000D02*
X124460000Y-22860000D01*
X127194500Y-31944500D02*
X124460000Y-29210000D01*
X121920000Y-20320000D02*
X121881500Y-20514500D01*
X128866500Y-60519500D02*
X128866500Y-57188500D01*
X128905000Y-29845000D02*
X128905000Y-31750000D01*
X132080000Y-26670000D02*
X128905000Y-29845000D01*
X139065000Y-26670000D02*
X132080000Y-26670000D01*
X134620000Y-43815000D02*
X139065000Y-43815000D01*
X134620000Y-51435000D02*
X134620000Y-43815000D01*
X128866500Y-57188500D02*
X134620000Y-51435000D01*
X128905000Y-31750000D02*
X128866500Y-31944500D01*
X-3810000Y-34925000D02*
X-3810000Y-36830000D01*
X-3810000Y-27940000D02*
X-3810000Y-36830000D01*
X-3810000Y-36830000D02*
X-3810000Y-46355000D01*
X-3810000Y-27940000D02*
X-3810000Y-24765000D01*
X-3810000Y-46355000D02*
X-3810000Y-24765000D01*
X-635000Y-31115000D02*
X-635000Y-29210000D01*
X-3810000Y-48895000D02*
X-2540000Y-48895000D01*
X-2540000Y-48895000D02*
X-635000Y-46990000D01*
X-635000Y-46990000D02*
X-635000Y-29210000D01*
X-635000Y-29210000D02*
X-635000Y-25400000D01*
X-635000Y-25400000D02*
X-635000Y-24765000D01*
X-635000Y-24765000D02*
X-635000Y-22225000D01*
X-635000Y-22225000D02*
X-3810000Y-22225000D01*
X-3810000Y-22225000D02*
X-635000Y-22225000D01*
X-4445000Y-48895000D02*
X-3810000Y-48895000D01*
X10160000Y-78740000D02*
X8255000Y-76835000D01*
X12065000Y-50800000D02*
X12065000Y-46355000D01*
X8255000Y-54610000D02*
X12065000Y-50800000D01*
X8255000Y-76835000D02*
X8255000Y-54610000D01*
X6985000Y-34925000D02*
X6985000Y-31115000D01*
X12065000Y-34925000D02*
X6985000Y-34925000D01*
X6985000Y-34925000D02*
X3810000Y-34925000D01*
X12065000Y-27305000D02*
X6985000Y-27305000D01*
X6985000Y-27305000D02*
X6985000Y-24765000D01*
X6985000Y-24765000D02*
X6985000Y-17145000D01*
X-635000Y-9525000D02*
X6985000Y-17145000D01*
X12065000Y-46355000D02*
X12065000Y-34925000D01*
X12065000Y-34925000D02*
X12065000Y-27305000D01*
X-635000Y-9525000D02*
X-3810000Y-9525000D01*
X13335000Y-81915000D02*
X16510000Y-81915000D01*
X10160000Y-78740000D02*
X13335000Y-81915000D01*
X-1270000Y-51435000D02*
X1905000Y-48260000D01*
X1905000Y-48260000D02*
X1905000Y-46990000D01*
X1905000Y-20320000D02*
X-1270000Y-17145000D01*
X-3810000Y-17145000D02*
X-1270000Y-17145000D01*
X1905000Y-46990000D02*
X1905000Y-20320000D01*
X-1270000Y-51435000D02*
X-3810000Y-51435000D01*
X36156500Y-76394500D02*
X34484500Y-76394500D01*
X33655000Y-77224000D02*
X33655000Y-81915000D01*
X34484500Y-76394500D02*
X33655000Y-77224000D01*
X36156500Y-57344500D02*
X34095500Y-57344500D01*
X33655000Y-57785000D02*
X33655000Y-62865000D01*
X34095500Y-57344500D02*
X33655000Y-57785000D01*
X36156500Y-38294500D02*
X33849500Y-38294500D01*
X33655000Y-38489000D02*
X33655000Y-43815000D01*
X33849500Y-38294500D02*
X33655000Y-38489000D01*
X36156500Y-19244500D02*
X33849500Y-19244500D01*
X33655000Y-19439000D02*
X33655000Y-24765000D01*
X33849500Y-19244500D02*
X33655000Y-19439000D01*
X55206500Y-76394500D02*
X53145500Y-76394500D01*
X52705000Y-76835000D02*
X52705000Y-81915000D01*
X53145500Y-76394500D02*
X52705000Y-76835000D01*
X55206500Y-57344500D02*
X52264500Y-57344500D01*
X52070000Y-57539000D02*
X52070000Y-62865000D01*
X52264500Y-57344500D02*
X52070000Y-57539000D01*
X55206500Y-38294500D02*
X53145500Y-38294500D01*
X52705000Y-38735000D02*
X52705000Y-43815000D01*
X53145500Y-38294500D02*
X52705000Y-38735000D01*
X55206500Y-19244500D02*
X53145500Y-19244500D01*
X52705000Y-19685000D02*
X52705000Y-24765000D01*
X53145500Y-19244500D02*
X52705000Y-19685000D01*
X74256500Y-76394500D02*
X71949500Y-76394500D01*
X71755000Y-76589000D02*
X71755000Y-81915000D01*
X71949500Y-76394500D02*
X71755000Y-76589000D01*
X74256500Y-57344500D02*
X72195500Y-57344500D01*
X71755000Y-57785000D02*
X71755000Y-62865000D01*
X72195500Y-57344500D02*
X71755000Y-57785000D01*
X74256500Y-38294500D02*
X72195500Y-38294500D01*
X71755000Y-38735000D02*
X71755000Y-43815000D01*
X72195500Y-38294500D02*
X71755000Y-38735000D01*
X90131500Y-17974500D02*
X90131500Y-24726500D01*
X90131500Y-24726500D02*
X90170000Y-24765000D01*
X93306500Y-76394500D02*
X90999500Y-76394500D01*
X90805000Y-76589000D02*
X90805000Y-81915000D01*
X90999500Y-76394500D02*
X90805000Y-76589000D01*
X93306500Y-57344500D02*
X91245500Y-57344500D01*
X90805000Y-57785000D02*
X90805000Y-62865000D01*
X91245500Y-57344500D02*
X90805000Y-57785000D01*
X93306500Y-38294500D02*
X91245500Y-38294500D01*
X90805000Y-38735000D02*
X90805000Y-43180000D01*
X91245500Y-38294500D02*
X90805000Y-38735000D01*
X90805000Y-43180000D02*
X90805000Y-43815000D01*
X112356500Y-76394500D02*
X110295500Y-76394500D01*
X109855000Y-76835000D02*
X109855000Y-81915000D01*
X110295500Y-76394500D02*
X109855000Y-76835000D01*
X112356500Y-57344500D02*
X110295500Y-57344500D01*
X109855000Y-57785000D02*
X109855000Y-62865000D01*
X110295500Y-57344500D02*
X109855000Y-57785000D01*
X112356500Y-38294500D02*
X110295500Y-38294500D01*
X109855000Y-38735000D02*
X109855000Y-43815000D01*
X110295500Y-38294500D02*
X109855000Y-38735000D01*
X128231500Y-17974500D02*
X128231500Y-24091500D01*
X128231500Y-24091500D02*
X128905000Y-24765000D01*
X131406500Y-66869500D02*
X131406500Y-81876500D01*
X131406500Y-81876500D02*
X131445000Y-81915000D01*
X131406500Y-38294500D02*
X124900500Y-38294500D01*
X123825000Y-39370000D02*
X123825000Y-57150000D01*
X124900500Y-38294500D02*
X123825000Y-39370000D01*
X12065000Y3175000D02*
X12065000Y0D01*
X12065000Y-3810000D02*
X-3810000Y-3810000D01*
X-3810000Y-3810000D02*
X-3810000Y-6985000D01*
X12065000Y0D02*
X12065000Y-3810000D01*
M02*
