M48
INCH,TZ
T1C0.031
T2C0.035
T3C0.039
T4C0.039
T5C0.059
T6C0.039
T7C0.067
T8C0.087
T9C0.106
T10C0.120
T11C0.157
%
G90
G05
T1
X10250Y-9750
X10250Y-17250
X10250Y-24750
X10250Y-32250
X13250Y-9750
X13250Y-17250
X13250Y-24750
X13250Y-32250
X17500Y-24750
X17750Y-9750
X17750Y-17250
X17750Y-32250
X20500Y-24750
X20750Y-9750
X20750Y-17250
X20750Y-32250
X25250Y-17250
X25250Y-24750
X25250Y-32250
X28250Y-17250
X28250Y-24750
X28250Y-32250
X32500Y-9750
X32750Y-17250
X32750Y-24750
X32750Y-32250
X35500Y-9750
X35750Y-17250
X35750Y-24750
X35750Y-32250
X40250Y-17250
X40250Y-24750
X40250Y-32250
X43250Y-17250
X43250Y-24750
X43250Y-32250
X47750Y-9750
X48750Y-22500
X48750Y-25500
X48750Y-32250
X50750Y-9750
X51750Y-32250
T2
X-1500Y-13750
X-250Y-12250
X1500Y-13750
X1750Y-16750
X2750Y-12250
X3000Y-15000
X6750Y-15000
X6750Y-16750
X11500Y-7000
X11500Y-12500
X11500Y-15250
X11500Y-19500
X11500Y-22750
X11500Y-27500
X18750Y-7500
X19000Y-12250
X19000Y-14750
X19000Y-19750
X19000Y-22250
X19000Y-27500
X26500Y-7500
X26500Y-12500
X26500Y-15000
X26500Y-20000
X26500Y-22750
X26500Y-27750
X34000Y-9750
X34000Y-12500
X34000Y-15000
X34000Y-20000
X34000Y-22750
X34000Y-27500
X41250Y-22500
X41500Y-15250
X41500Y-20000
X41500Y-27500
T3
X-1500Y-18250
X-1500Y-19250
X-1500Y-20250
X-1500Y-21250
X-1500Y-22250
X-1500Y-25250
X-1500Y-26250
X6500Y-24250
X6500Y-25250
X6500Y-26250
X6500Y-27250
X6500Y-28250
X6500Y-29250
X6500Y-30250
X6500Y-32250
T4
X-1500Y-2750
X-1500Y-3750
X-1500Y-4750
X-1500Y-5750
X-1500Y-6750
X-1500Y-8750
X-1500Y-9750
X4750Y1250
X5750Y1250
X6750Y1250
T5
X13235Y-5077
X13235Y-12577
X13235Y-20077
X13235Y-27577
X14235Y-7577
X14235Y-15077
X14235Y-22577
X14235Y-30077
X20735Y-5077
X20735Y-12577
X20735Y-20077
X20735Y-27577
X21735Y-7577
X21735Y-15077
X21735Y-22577
X21735Y-30077
X28235Y-12577
X28235Y-20077
X28235Y-27577
X29235Y-15077
X29235Y-22577
X29235Y-30077
X32985Y-8077
X35485Y-7077
X35735Y-12577
X35735Y-20077
X35735Y-27577
X36735Y-15077
X36735Y-22577
X36735Y-30077
X43235Y-12577
X43235Y-20077
X43235Y-27577
X44235Y-15077
X44235Y-22577
X44235Y-30077
X47985Y-8077
X50485Y-7077
X50735Y-12577
X50735Y-23827
X51735Y-15077
X51735Y-26327
T6
X-1500Y-23250
X-1500Y-24250
X-1500Y-27250
X-1500Y-28250
X-1500Y-29250
X6500Y-18250
X6500Y-19250
X6500Y-20250
X6500Y-21250
X6500Y-22250
X6500Y-23250
X6500Y-31250
X6500Y-33250
T7
X15235Y-4077
X15235Y-8077
X15235Y-11577
X15235Y-15577
X15235Y-19077
X15235Y-23077
X15235Y-26577
X15235Y-30577
X22735Y-4077
X22735Y-8077
X22735Y-11577
X22735Y-15577
X22735Y-19077
X22735Y-23077
X22735Y-26577
X22735Y-30577
X30235Y-11577
X30235Y-15577
X30235Y-19077
X30235Y-23077
X30235Y-26577
X30235Y-30577
X31985Y-6077
X35985Y-6077
X37735Y-11577
X37735Y-15577
X37735Y-19077
X37735Y-23077
X37735Y-26577
X37735Y-30577
X45235Y-11577
X45235Y-15577
X45235Y-19077
X45235Y-23077
X45235Y-26577
X45235Y-30577
X46985Y-6077
X50985Y-6077
X52735Y-11577
X52735Y-15577
X52735Y-22827
X52735Y-26827
T8
X-1250Y0
X55000Y0
X55000Y-35000
T9
X-1000Y-34750
X6000Y-34750
T10
X29285Y-8827
X38685Y-8827
X44285Y-8827
X49985Y-20127
X49985Y-29527
X53685Y-8827
T11
X15235Y-6077
X15235Y-13577
X15235Y-21077
X15235Y-28577
X22735Y-6077
X22735Y-13577
X22735Y-21077
X22735Y-28577
X29285Y-2827
X30235Y-13577
X30235Y-21077
X30235Y-28577
X33985Y-6077
X37735Y-13577
X37735Y-21077
X37735Y-28577
X38685Y-2827
X44285Y-2827
X45235Y-13577
X45235Y-21077
X45235Y-28577
X48985Y-6077
X52735Y-13577
X52735Y-24827
X53685Y-2827
X55985Y-20127
X55985Y-29527
T4
X-1500Y-7750G85X-1500Y-7750
G05
T0
M30
